<svg width="26" height="26" viewBox="0 0 26 26" fill="none" xmlns="http://www.w3.org/2000/svg">
<path d="M0.291226 12.9519C0.291226 12.9519 3.17035 6.48879 12.5698 6.63069C12.5698 6.63069 17.9093 6.82294 21.3903 10.6221C21.3903 10.6221 20.6122 12.6292 19.6921 13.5447C19.6921 13.5447 17.6049 10.2788 11.2607 10.0087C9.95051 9.99671 8.65257 10.2621 7.45225 10.7875C6.25192 11.3129 5.1764 12.0865 4.29637 13.0572C4.29637 13.0572 6.12729 15.8036 10.7412 16.5062C11.1097 18.0373 12.3158 19.811 12.3158 19.811C12.3158 19.811 3.35573 19.3876 0.291226 12.9519Z" fill="url(#paint0_linear_909_29998)"/>
<path d="M10.4185 10.0202C10.4185 10.0202 9.14144 15.1903 12.3066 19.834C15.4718 24.4776 21.2873 25.9309 23.6103 25.6151C23.6103 25.6151 27.3843 20.3992 23.8392 12.9863C23.1694 14.1974 22.3067 15.2913 21.285 16.2248C21.285 16.2248 22.5964 20.1269 21.4979 22.134C19.4518 21.9052 16.7855 21.2895 14.7441 17.8085C14.7441 17.8085 13.1718 15.5702 13.911 10.2926C12.7604 10.0732 11.5891 9.98182 10.4185 10.0202Z" fill="url(#paint1_linear_909_29998)"/>
<path d="M11.81 6.63068C11.81 6.63068 15.4718 0.817504 23.5027 0.394104C23.5027 0.394104 26.732 5.36734 24.7683 11.2629C24.7683 11.2629 22.8962 17.4171 15.8975 19.4151C15.5258 18.9607 15.1804 18.4854 14.8631 17.9915C14.567 17.5454 14.3423 17.0559 14.1971 16.5405C14.1971 16.5405 18.9071 15.7624 20.7586 11.8969C20.7586 11.8969 23.1846 8.0977 21.3903 4.08799C20.2628 4.16882 19.1654 4.48831 18.1707 5.02531C17.176 5.56231 16.3068 6.30454 15.6206 7.20284C14.3846 6.82975 13.1011 6.63704 11.81 6.63068Z" fill="url(#paint2_linear_909_29998)"/>
<defs>
<linearGradient id="paint0_linear_909_29998" x1="0.323267" y1="15.6205" x2="22.8001" y2="10.7136" gradientUnits="userSpaceOnUse">
<stop stop-color="#4D4D4D"/>
<stop offset="0.05" stop-color="#7A7A7A"/>
<stop offset="0.12" stop-color="#B3B3B3"/>
<stop offset="0.18" stop-color="#DCDCDC"/>
<stop offset="0.22" stop-color="#F6F6F6"/>
<stop offset="0.25" stop-color="white"/>
<stop offset="0.29" stop-color="#DEDEDE"/>
<stop offset="0.4" stop-color="#909090"/>
<stop offset="0.47" stop-color="#606060"/>
<stop offset="0.51" stop-color="#4D4D4D"/>
<stop offset="0.75" stop-color="white"/>
<stop offset="0.79" stop-color="#DEDEDE"/>
<stop offset="0.89" stop-color="#909090"/>
<stop offset="0.96" stop-color="#606060"/>
<stop offset="1" stop-color="#4D4D4D"/>
</linearGradient>
<linearGradient id="paint1_linear_909_29998" x1="13.6753" y1="22.4178" x2="19.5296" y2="14.3458" gradientUnits="userSpaceOnUse">
<stop stop-color="white"/>
<stop offset="0.1" stop-color="#F3F3F3"/>
<stop offset="0.28" stop-color="#D4D4D4"/>
<stop offset="0.52" stop-color="#A3A3A3"/>
<stop offset="1" stop-color="#4D4D4D"/>
</linearGradient>
<linearGradient id="paint2_linear_909_29998" x1="26.4116" y1="5.06753" x2="15.8884" y2="11.3819" gradientUnits="userSpaceOnUse">
<stop stop-color="#4D4D4D"/>
<stop offset="0.51" stop-color="white"/>
<stop offset="0.57" stop-color="#F0F0F0"/>
<stop offset="0.69" stop-color="#C8C8C8"/>
<stop offset="0.86" stop-color="#888888"/>
<stop offset="1" stop-color="#4D4D4D"/>
</linearGradient>
</defs>
</svg>
