<svg width="111" height="33" viewBox="0 0 111 33" fill="none" xmlns="http://www.w3.org/2000/svg">
<path d="M4.29123 15.9519C4.29123 15.9519 7.17035 9.48879 16.5698 9.63069C16.5698 9.63069 21.9093 9.82294 25.3903 13.6221C25.3903 13.6221 24.6122 15.6292 23.6921 16.5447C23.6921 16.5447 21.6049 13.2788 15.2607 13.0087C13.9505 12.9967 12.6526 13.2621 11.4522 13.7875C10.2519 14.3129 9.1764 15.0865 8.29637 16.0572C8.29637 16.0572 10.1273 18.8036 14.7412 19.5062C15.1097 21.0373 16.3158 22.811 16.3158 22.811C16.3158 22.811 7.35573 22.3876 4.29123 15.9519Z" fill="url(#paint0_linear_909_29996)"/>
<path d="M14.4185 13.0202C14.4185 13.0202 13.1414 18.1903 16.3066 22.834C19.4718 27.4776 25.2873 28.9309 27.6103 28.6151C27.6103 28.6151 31.3843 23.3992 27.8392 15.9863C27.1694 17.1974 26.3067 18.2913 25.285 19.2248C25.285 19.2248 26.5964 23.1269 25.4979 25.134C23.4518 24.9052 20.7855 24.2895 18.7441 20.8085C18.7441 20.8085 17.1718 18.5702 17.911 13.2926C16.7604 13.0732 15.5891 12.9818 14.4185 13.0202Z" fill="url(#paint1_linear_909_29996)"/>
<path d="M15.81 9.63068C15.81 9.63068 19.4718 3.8175 27.5027 3.3941C27.5027 3.3941 30.732 8.36734 28.7683 14.2629C28.7683 14.2629 26.8962 20.4171 19.8975 22.4151C19.5258 21.9607 19.1804 21.4854 18.8631 20.9915C18.567 20.5454 18.3423 20.0559 18.1971 19.5405C18.1971 19.5405 22.9071 18.7624 24.7586 14.8969C24.7586 14.8969 27.1846 11.0977 25.3903 7.08799C24.2628 7.16882 23.1654 7.48831 22.1707 8.02531C21.176 8.56231 20.3068 9.30454 19.6206 10.2028C18.3846 9.82975 17.1011 9.63704 15.81 9.63068Z" fill="url(#paint2_linear_909_29996)"/>
<path d="M49.9523 9.70849C49.9523 9.70849 52.2272 9.35146 52.2272 6.44488C52.2272 3.18355 47.6773 3.41012 47.6773 3.41012H36.4263V16.1533H48.341C50.2406 16.1533 52.5361 15.4393 52.5361 12.908C52.5361 10.3768 49.9523 9.70849 49.9523 9.70849ZM39.9531 5.70335L47.1532 5.63698C47.5492 5.63698 48.5791 5.63698 48.5791 7.14062C48.5791 8.64427 46.9953 8.64427 46.9953 8.64427H39.9531V5.70335ZM46.9953 13.867H39.9531V10.9146L46.8191 10.8482C47.952 10.8482 48.7118 11.0771 48.7118 12.3519C48.7049 13.8555 46.9953 13.8555 46.9953 13.8555V13.867ZM65.5334 8.56417H59.7843C58.5965 8.56417 58.1822 7.93021 58.2349 6.90261C58.2898 5.73997 59.8369 5.7148 59.8369 5.7148H68.9137L68.9801 3.42614H58.2463C58.2463 3.42614 54.0604 3.26823 54.0604 7.06739C54.0604 10.8665 57.9282 10.9261 57.9282 10.9261H63.231C63.4599 10.9261 65.6844 10.7681 65.6844 12.2718C65.6844 13.7754 63.865 13.7068 63.865 13.7068H54.6714V16.151H65.911C65.911 16.151 70.0306 15.5606 70.0306 12.1596C70.0306 8.7587 65.5357 8.56417 65.5357 8.56417H65.5334ZM85.4035 7.29854C85.4035 3.3941 81.6043 3.3941 81.6043 3.3941H71.2665V16.151H74.9672V11.1824H78.4414L81.7119 16.151H86.145L82.4511 10.9787C82.4511 10.9787 85.4057 11.1915 85.4057 7.2871L85.4035 7.29854ZM79.6704 9.07225H74.9786V5.63927H79.4987C79.4987 5.63927 81.293 5.63927 81.293 7.24133C81.293 8.84338 80.357 9.07225 79.6704 9.07225ZM100.818 3.57949L96.6979 12.8371L92.6608 3.49938H87.2779V16.151H90.9191V6.73325L94.8762 16.1533H98.5952L102.632 7.04908V16.151H106.194V3.56346L100.818 3.57949Z" fill="#3D4A5C"/>
<path d="M37.28 25.5525V24.9955H38.6013C38.856 24.9955 39.0525 24.9243 39.1906 24.7818C39.3331 24.635 39.4044 24.4407 39.4044 24.1989C39.4044 23.9528 39.3353 23.7606 39.1971 23.6225C39.059 23.48 38.8603 23.4087 38.6013 23.4087H37.28V22.9942H38.5106C38.8128 22.9942 39.0784 23.0309 39.3072 23.1043C39.5404 23.1777 39.7217 23.3008 39.8513 23.4735C39.9851 23.6419 40.052 23.8729 40.052 24.1665V24.2572C40.052 24.5335 39.9959 24.7688 39.8836 24.9631C39.7714 25.1531 39.6008 25.2999 39.372 25.4036C39.1432 25.5029 38.856 25.5525 38.5106 25.5525H37.28ZM36.7749 25.5525V20.7728H37.4096V25.5525H36.7749ZM37.28 23.2922V22.8777H38.4264C38.6941 22.8777 38.8906 22.8064 39.0158 22.6639C39.1453 22.5171 39.2101 22.3315 39.2101 22.1069C39.2101 21.8781 39.1453 21.6924 39.0158 21.55C38.8906 21.4031 38.6941 21.3297 38.4264 21.3297H37.28V20.7728H38.3163C38.8344 20.7728 39.2209 20.8829 39.4756 21.1031C39.7304 21.319 39.8577 21.632 39.8577 22.0422V22.1328C39.8577 22.4221 39.793 22.6531 39.6634 22.8258C39.5339 22.9942 39.3526 23.1151 39.1194 23.1885C38.8906 23.2576 38.6229 23.2922 38.3163 23.2922H37.28ZM42.1765 25.6302C41.7663 25.6302 41.4511 25.4964 41.2309 25.2287C41.0107 24.961 40.9006 24.5745 40.9006 24.0694V22.0616H41.5224V24.1924C41.5224 24.4644 41.5958 24.6782 41.7426 24.8336C41.8894 24.9847 42.088 25.0603 42.3384 25.0603C42.5975 25.0603 42.8091 24.9783 42.9731 24.8142C43.1372 24.6458 43.2193 24.4169 43.2193 24.1277V22.0616H43.841V25.5266H43.3488V24.0435H43.4265C43.4265 24.3846 43.3812 24.6739 43.2905 24.9113C43.1998 25.1445 43.0638 25.3237 42.8825 25.4489C42.7054 25.5698 42.4788 25.6302 42.2024 25.6302H42.1765ZM45.1057 25.5266V22.0681H45.7274V25.5266H45.1057ZM44.5746 22.5603V22.0681H45.7274V22.5603H44.5746ZM45.2805 21.5111C45.1424 21.5111 45.0387 21.4744 44.9697 21.401C44.9049 21.3276 44.8725 21.2348 44.8725 21.1225C44.8725 21.0102 44.9049 20.9174 44.9697 20.844C45.0387 20.7706 45.1424 20.7339 45.2805 20.7339C45.4187 20.7339 45.5202 20.7706 45.5849 20.844C45.654 20.9174 45.6886 21.0102 45.6886 21.1225C45.6886 21.2348 45.654 21.3276 45.5849 21.401C45.5202 21.4744 45.4187 21.5111 45.2805 21.5111ZM46.8605 25.5266V20.7987H47.4823V25.5266H46.8605ZM46.3812 21.2909V20.7987H47.4823V21.2909H46.3812ZM50.0112 25.6432C49.7651 25.6432 49.5384 25.5979 49.3311 25.5072C49.1239 25.4165 48.9425 25.2891 48.7871 25.1251C48.636 24.961 48.5172 24.771 48.4309 24.5551C48.3488 24.3392 48.3078 24.1061 48.3078 23.8556V23.7391C48.3078 23.4929 48.3488 23.2619 48.4309 23.0461C48.5129 22.8302 48.6273 22.6402 48.7741 22.4761C48.9253 22.312 49.1023 22.1847 49.3052 22.094C49.5125 21.999 49.7413 21.9515 49.9918 21.9515C50.2551 21.9515 50.4948 22.0076 50.7107 22.1199C50.9265 22.2278 51.1036 22.3984 51.2417 22.6316C51.3799 22.8647 51.4576 23.167 51.4749 23.5383L51.2158 23.1238V20.7987H51.8376V25.5266H51.3454V23.9916H51.5267C51.5094 24.3846 51.4274 24.7041 51.2806 24.9502C51.1338 25.192 50.9481 25.369 50.7236 25.4813C50.5034 25.5892 50.2659 25.6432 50.0112 25.6432ZM50.0954 25.0992C50.3069 25.0992 50.4991 25.0517 50.6718 24.9567C50.8445 24.8617 50.9827 24.7257 51.0863 24.5486C51.1899 24.3673 51.2417 24.1557 51.2417 23.9139V23.616C51.2417 23.3785 51.1878 23.1777 51.0798 23.0137C50.9762 22.8453 50.8359 22.7179 50.6588 22.6316C50.4861 22.5409 50.2962 22.4955 50.0889 22.4955C49.8601 22.4955 49.6571 22.5495 49.4801 22.6575C49.3074 22.7654 49.1714 22.9165 49.0721 23.1108C48.9771 23.3051 48.9296 23.534 48.9296 23.7973C48.9296 24.0607 48.9792 24.2917 49.0785 24.4903C49.1779 24.6846 49.316 24.8358 49.4931 24.9437C49.6701 25.0473 49.8709 25.0992 50.0954 25.0992ZM53.0927 25.5266V22.0681H53.7144V25.5266H53.0927ZM52.5616 22.5603V22.0681H53.7144V22.5603H52.5616ZM53.2676 21.5111C53.1294 21.5111 53.0258 21.4744 52.9567 21.401C52.8919 21.3276 52.8595 21.2348 52.8595 21.1225C52.8595 21.0102 52.8919 20.9174 52.9567 20.844C53.0258 20.7706 53.1294 20.7339 53.2676 20.7339C53.4057 20.7339 53.5072 20.7706 53.572 20.844C53.641 20.9174 53.6756 21.0102 53.6756 21.1225C53.6756 21.2348 53.641 21.3276 53.572 21.401C53.5072 21.4744 53.4057 21.5111 53.2676 21.5111ZM54.8087 25.5266V22.0681H55.3009V23.5512H55.2232C55.2232 23.2101 55.2685 22.923 55.3592 22.6898C55.4542 22.4524 55.5967 22.2732 55.7866 22.1523C55.9766 22.0271 56.2163 21.9645 56.5056 21.9645H56.5315C56.9676 21.9645 57.2892 22.1005 57.4965 22.3725C57.7081 22.6445 57.8138 23.0374 57.8138 23.5512V25.5266H57.1921V23.4217C57.1921 23.154 57.1165 22.9403 56.9654 22.7805C56.8143 22.6164 56.607 22.5344 56.3436 22.5344C56.0716 22.5344 55.8514 22.6186 55.683 22.787C55.5146 22.9554 55.4304 23.1799 55.4304 23.4606V25.5266H54.8087ZM60.1518 26.8738C59.992 26.8738 59.8301 26.8673 59.666 26.8543C59.5063 26.8414 59.353 26.8241 59.2062 26.8025V26.2779C59.3616 26.2995 59.5236 26.3168 59.6919 26.3297C59.8647 26.347 60.0266 26.3556 60.1777 26.3556C60.4929 26.3556 60.7433 26.3124 60.929 26.2261C61.119 26.1441 61.255 26.0124 61.337 25.831C61.4234 25.654 61.4665 25.4251 61.4665 25.1445V24.4839L61.6738 23.9916C61.6608 24.3414 61.5874 24.6328 61.4536 24.866C61.3197 25.0948 61.1449 25.2675 60.929 25.3841C60.7174 25.4964 60.4821 25.5525 60.223 25.5525C59.9812 25.5525 59.7589 25.5072 59.5559 25.4165C59.3573 25.3215 59.1846 25.192 59.0378 25.0279C58.8953 24.8638 58.7831 24.676 58.701 24.4644C58.6233 24.2486 58.5844 24.0219 58.5844 23.7844V23.6678C58.5844 23.426 58.6255 23.2015 58.7075 22.9942C58.7895 22.7827 58.904 22.5992 59.0508 22.4437C59.1976 22.2883 59.3724 22.1674 59.5754 22.081C59.7826 21.9947 60.0093 21.9515 60.2554 21.9515C60.5447 21.9515 60.7995 22.0141 61.0197 22.1393C61.2399 22.2602 61.4126 22.4394 61.5378 22.6769C61.6673 22.91 61.7386 23.1972 61.7515 23.5383L61.5702 23.5448V22.0681H62.0624V25.1186C62.0624 25.5331 61.9976 25.8677 61.8681 26.1225C61.7429 26.3815 61.5399 26.5715 61.2593 26.6924C60.983 26.8133 60.6138 26.8738 60.1518 26.8738ZM60.3396 24.9826C60.5469 24.9826 60.7347 24.9372 60.9031 24.8466C61.0758 24.7559 61.2118 24.6264 61.3111 24.458C61.4147 24.2853 61.4665 24.0802 61.4665 23.8427V23.5448C61.4665 23.3116 61.4126 23.1151 61.3046 22.9554C61.201 22.7956 61.065 22.6747 60.8966 22.5927C60.7282 22.5107 60.5447 22.4696 60.3461 22.4696C60.1216 22.4696 59.9229 22.5214 59.7502 22.6251C59.5775 22.7287 59.4437 22.8755 59.3487 23.0655C59.2537 23.2511 59.2062 23.4714 59.2062 23.7261C59.2062 23.9809 59.2537 24.2032 59.3487 24.3932C59.448 24.5832 59.5818 24.73 59.7502 24.8336C59.9229 24.9329 60.1194 24.9826 60.3396 24.9826ZM66.5637 25.5266V24.4903H66.4601V23.2922C66.4601 23.0547 66.3975 22.8755 66.2723 22.7546C66.1514 22.6337 65.9722 22.5733 65.7347 22.5733C65.6009 22.5733 65.4627 22.5754 65.3202 22.5797C65.1777 22.5841 65.0417 22.5884 64.9122 22.5927C64.7827 22.597 64.6704 22.6035 64.5754 22.6121V22.0681C64.6704 22.0594 64.7697 22.053 64.8733 22.0487C64.9813 22.04 65.0914 22.0357 65.2036 22.0357C65.3159 22.0314 65.4238 22.0292 65.5275 22.0292C65.8815 22.0292 66.1708 22.0724 66.3953 22.1588C66.6199 22.2408 66.7861 22.3768 66.894 22.5668C67.002 22.7568 67.056 23.0137 67.056 23.3375V25.5266H66.5637ZM65.4303 25.6173C65.1713 25.6173 64.9467 25.5741 64.7568 25.4878C64.5711 25.3971 64.4264 25.2675 64.3228 25.0992C64.2235 24.9308 64.1739 24.7278 64.1739 24.4903C64.1739 24.2442 64.2278 24.0391 64.3358 23.8751C64.448 23.711 64.6099 23.5879 64.8215 23.5059C65.0331 23.4195 65.2878 23.3764 65.5858 23.3764H66.5249V23.8427H65.5599C65.3094 23.8427 65.1173 23.9031 64.9834 24.024C64.8496 24.1449 64.7827 24.3004 64.7827 24.4903C64.7827 24.6803 64.8496 24.8336 64.9834 24.9502C65.1173 25.0668 65.3094 25.1251 65.5599 25.1251C65.7067 25.1251 65.847 25.0992 65.9808 25.0473C66.1147 24.9912 66.2248 24.9005 66.3111 24.7753C66.4018 24.6458 66.4515 24.4688 66.4601 24.2442L66.6285 24.4903C66.6069 24.7365 66.5465 24.9437 66.4472 25.1121C66.3522 25.2762 66.2183 25.4014 66.0456 25.4878C65.8772 25.5741 65.6721 25.6173 65.4303 25.6173ZM70.5883 25.6302C70.135 25.6302 69.7831 25.5331 69.5326 25.3388C69.2865 25.1445 69.1592 24.8789 69.1505 24.5422H69.7334C69.742 24.676 69.809 24.8034 69.9342 24.9243C70.0637 25.0409 70.2818 25.0992 70.5883 25.0992C70.8647 25.0992 71.0762 25.0452 71.223 24.9372C71.3698 24.825 71.4432 24.689 71.4432 24.5292C71.4432 24.3867 71.3893 24.2766 71.2813 24.1989C71.1734 24.1169 70.9985 24.0629 70.7567 24.037L70.3811 23.9981C70.0529 23.9636 69.7852 23.8664 69.578 23.7067C69.3707 23.5426 69.2671 23.3138 69.2671 23.0201C69.2671 22.7999 69.3232 22.6121 69.4355 22.4567C69.5477 22.2969 69.7032 22.176 69.9018 22.094C70.1004 22.0076 70.3293 21.9645 70.5883 21.9645C70.9769 21.9645 71.2921 22.0508 71.5339 22.2235C71.7757 22.3962 71.9009 22.6531 71.9096 22.9942H71.3267C71.3224 22.8561 71.2576 22.7395 71.1324 22.6445C71.0115 22.5452 70.8301 22.4955 70.5883 22.4955C70.3465 22.4955 70.163 22.5452 70.0378 22.6445C69.9126 22.7438 69.85 22.869 69.85 23.0201C69.85 23.1497 69.8932 23.2533 69.9795 23.331C70.0702 23.4087 70.217 23.4584 70.4199 23.48L70.7956 23.5189C71.1669 23.5577 71.4648 23.6613 71.6894 23.8297C71.9139 23.9938 72.0261 24.227 72.0261 24.5292C72.0261 24.7451 71.9635 24.9372 71.8383 25.1056C71.7174 25.2697 71.549 25.3992 71.3331 25.4942C71.1173 25.5849 70.869 25.6302 70.5883 25.6302ZM74.9113 25.5266V24.4903H74.8076V23.2922C74.8076 23.0547 74.745 22.8755 74.6198 22.7546C74.4989 22.6337 74.3197 22.5733 74.0823 22.5733C73.9484 22.5733 73.8102 22.5754 73.6678 22.5797C73.5253 22.5841 73.3893 22.5884 73.2597 22.5927C73.1302 22.597 73.0179 22.6035 72.9229 22.6121V22.0681C73.0179 22.0594 73.1172 22.053 73.2209 22.0487C73.3288 22.04 73.4389 22.0357 73.5512 22.0357C73.6634 22.0314 73.7714 22.0292 73.875 22.0292C74.2291 22.0292 74.5184 22.0724 74.7429 22.1588C74.9674 22.2408 75.1336 22.3768 75.2416 22.5668C75.3495 22.7568 75.4035 23.0137 75.4035 23.3375V25.5266H74.9113ZM73.7779 25.6173C73.5188 25.6173 73.2943 25.5741 73.1043 25.4878C72.9186 25.3971 72.774 25.2675 72.6704 25.0992C72.571 24.9308 72.5214 24.7278 72.5214 24.4903C72.5214 24.2442 72.5754 24.0391 72.6833 23.8751C72.7956 23.711 72.9575 23.5879 73.1691 23.5059C73.3806 23.4195 73.6354 23.3764 73.9333 23.3764H74.8724V23.8427H73.9074C73.657 23.8427 73.4648 23.9031 73.331 24.024C73.1971 24.1449 73.1302 24.3004 73.1302 24.4903C73.1302 24.6803 73.1971 24.8336 73.331 24.9502C73.4648 25.0668 73.657 25.1251 73.9074 25.1251C74.0542 25.1251 74.1945 25.0992 74.3284 25.0473C74.4622 24.9912 74.5723 24.9005 74.6587 24.7753C74.7494 24.6458 74.799 24.4688 74.8076 24.2442L74.976 24.4903C74.9545 24.7365 74.894 24.9437 74.7947 25.1121C74.6997 25.2762 74.5659 25.4014 74.3931 25.4878C74.2247 25.5741 74.0197 25.6173 73.7779 25.6173ZM76.5274 25.5266V21.8932C76.5274 21.5089 76.6288 21.2261 76.8318 21.0448C77.0347 20.8634 77.3326 20.7728 77.7256 20.7728H78.153V21.2909H77.6219C77.4622 21.2909 77.3391 21.3362 77.2528 21.4269C77.1664 21.5132 77.1232 21.6341 77.1232 21.7896V25.5266H76.5274ZM76.0481 22.5733V22.1069H78.2178V22.5733H76.0481ZM80.2277 25.6432C79.9255 25.6432 79.6642 25.5914 79.444 25.4878C79.2238 25.3841 79.0446 25.2481 78.9065 25.0797C78.7683 24.907 78.6647 24.7149 78.5956 24.5033C78.5308 24.2917 78.4984 24.0758 78.4984 23.8556V23.7391C78.4984 23.5145 78.5308 23.2965 78.5956 23.0849C78.6647 22.8733 78.7683 22.6834 78.9065 22.515C79.0446 22.3423 79.2195 22.2063 79.4311 22.1069C79.647 22.0033 79.8996 21.9515 80.1888 21.9515C80.5645 21.9515 80.8732 22.0335 81.115 22.1976C81.3611 22.3574 81.5425 22.5646 81.659 22.8194C81.7799 23.0741 81.8404 23.3461 81.8404 23.6354V23.9139H78.7705V23.4476H81.387L81.2445 23.7002C81.2445 23.4541 81.2057 23.2425 81.128 23.0655C81.0502 22.8841 80.9337 22.7438 80.7782 22.6445C80.6228 22.5452 80.4263 22.4955 80.1888 22.4955C79.9427 22.4955 79.7376 22.5517 79.5736 22.6639C79.4138 22.7762 79.2929 22.9295 79.2109 23.1238C79.1332 23.3181 79.0943 23.5426 79.0943 23.7973C79.0943 24.0435 79.1332 24.2658 79.2109 24.4644C79.2929 24.6587 79.4181 24.8142 79.5865 24.9308C79.7549 25.043 79.9686 25.0992 80.2277 25.0992C80.4997 25.0992 80.7199 25.0387 80.8883 24.9178C81.061 24.7969 81.1647 24.6566 81.1992 24.4968H81.7821C81.7346 24.7343 81.6396 24.9394 81.4971 25.1121C81.3546 25.2848 81.1755 25.4165 80.9596 25.5072C80.7437 25.5979 80.4997 25.6432 80.2277 25.6432ZM82.6152 25.5266V22.0681H83.1075V23.4929H83.0816C83.0816 22.9878 83.1917 22.6186 83.4119 22.3854C83.6364 22.148 83.971 22.0292 84.4157 22.0292H84.5323V22.5862H84.3121C83.9667 22.5862 83.7012 22.679 83.5155 22.8647C83.3298 23.0461 83.237 23.3094 83.237 23.6549V25.5266H82.6152ZM86.5295 25.5266V22.0681H87.0217V23.5512H86.944C86.944 23.2101 86.9893 22.923 87.08 22.6898C87.175 22.4524 87.3175 22.2732 87.5075 22.1523C87.6974 22.0271 87.9371 21.9645 88.2264 21.9645H88.2523C88.6884 21.9645 89.01 22.1005 89.2173 22.3725C89.4289 22.6445 89.5346 23.0374 89.5346 23.5512V25.5266H88.9129V23.4217C88.9129 23.154 88.8373 22.9403 88.6862 22.7805C88.5351 22.6164 88.3278 22.5344 88.0644 22.5344C87.7924 22.5344 87.5722 22.6186 87.4038 22.787C87.2354 22.9554 87.1512 23.1799 87.1512 23.4606V25.5266H86.5295ZM92.6563 25.5266V24.4903H92.5526V23.2922C92.5526 23.0547 92.49 22.8755 92.3648 22.7546C92.2439 22.6337 92.0647 22.5733 91.8273 22.5733C91.6934 22.5733 91.5552 22.5754 91.4128 22.5797C91.2703 22.5841 91.1343 22.5884 91.0047 22.5927C90.8752 22.597 90.7629 22.6035 90.6679 22.6121V22.0681C90.7629 22.0594 90.8622 22.053 90.9659 22.0487C91.0738 22.04 91.1839 22.0357 91.2962 22.0357C91.4084 22.0314 91.5164 22.0292 91.62 22.0292C91.9741 22.0292 92.2634 22.0724 92.4879 22.1588C92.7124 22.2408 92.8786 22.3768 92.9866 22.5668C93.0945 22.7568 93.1485 23.0137 93.1485 23.3375V25.5266H92.6563ZM91.5229 25.6173C91.2638 25.6173 91.0393 25.5741 90.8493 25.4878C90.6636 25.3971 90.519 25.2675 90.4153 25.0992C90.316 24.9308 90.2664 24.7278 90.2664 24.4903C90.2664 24.2442 90.3204 24.0391 90.4283 23.8751C90.5406 23.711 90.7025 23.5879 90.9141 23.5059C91.1256 23.4195 91.3804 23.3764 91.6783 23.3764H92.6174V23.8427H91.6524C91.402 23.8427 91.2098 23.9031 91.076 24.024C90.9421 24.1449 90.8752 24.3004 90.8752 24.4903C90.8752 24.6803 90.9421 24.8336 91.076 24.9502C91.2098 25.0668 91.402 25.1251 91.6524 25.1251C91.7992 25.1251 91.9395 25.0992 92.0734 25.0473C92.2072 24.9912 92.3173 24.9005 92.4037 24.7753C92.4944 24.6458 92.544 24.4688 92.5526 24.2442L92.721 24.4903C92.6994 24.7365 92.639 24.9437 92.5397 25.1121C92.4447 25.2762 92.3108 25.4014 92.1381 25.4878C91.9697 25.5741 91.7646 25.6173 91.5229 25.6173ZM95.5288 25.5655C95.2698 25.5655 95.0453 25.5288 94.8553 25.4554C94.6696 25.382 94.525 25.2568 94.4213 25.0797C94.322 24.8984 94.2724 24.6544 94.2724 24.3479V21.0189H94.8682V24.4256C94.8682 24.6112 94.9179 24.7559 95.0172 24.8595C95.1208 24.9588 95.2655 25.0085 95.4511 25.0085H96.0599V25.5655H95.5288ZM93.6765 22.5344V22.0681H96.0599V22.5344H93.6765ZM96.9998 25.5266V22.0681H97.6215V25.5266H96.9998ZM96.4687 22.5603V22.0681H97.6215V22.5603H96.4687ZM97.1747 21.5111C97.0365 21.5111 96.9329 21.4744 96.8638 21.401C96.799 21.3276 96.7666 21.2348 96.7666 21.1225C96.7666 21.0102 96.799 20.9174 96.8638 20.844C96.9329 20.7706 97.0365 20.7339 97.1747 20.7339C97.3128 20.7339 97.4143 20.7706 97.4791 20.844C97.5481 20.9174 97.5827 21.0102 97.5827 21.1225C97.5827 21.2348 97.5481 21.3276 97.4791 21.401C97.4143 21.4744 97.3128 21.5111 97.1747 21.5111ZM100.309 25.6432C100.007 25.6432 99.7412 25.5914 99.5124 25.4878C99.2836 25.3841 99.0893 25.2481 98.9295 25.0797C98.7741 24.907 98.6553 24.7149 98.5733 24.5033C98.4956 24.2917 98.4567 24.0758 98.4567 23.8556V23.7391C98.4567 23.5189 98.4977 23.303 98.5798 23.0914C98.6618 22.8755 98.7827 22.6834 98.9425 22.515C99.1022 22.3423 99.2965 22.2063 99.5254 22.1069C99.7542 22.0033 100.015 21.9515 100.309 21.9515C100.603 21.9515 100.864 22.0033 101.093 22.1069C101.322 22.2063 101.516 22.3423 101.676 22.515C101.835 22.6834 101.956 22.8755 102.038 23.0914C102.12 23.303 102.161 23.5189 102.161 23.7391V23.8556C102.161 24.0758 102.12 24.2917 102.038 24.5033C101.961 24.7149 101.842 24.907 101.682 25.0797C101.527 25.2481 101.335 25.3841 101.106 25.4878C100.877 25.5914 100.611 25.6432 100.309 25.6432ZM100.309 25.0862C100.568 25.0862 100.788 25.0301 100.97 24.9178C101.155 24.8012 101.296 24.6458 101.391 24.4515C101.49 24.2572 101.54 24.0391 101.54 23.7973C101.54 23.5512 101.49 23.331 101.391 23.1367C101.291 22.9424 101.149 22.7891 100.963 22.6769C100.782 22.5646 100.564 22.5085 100.309 22.5085C100.059 22.5085 99.8406 22.5646 99.6549 22.6769C99.4692 22.7891 99.3267 22.9424 99.2274 23.1367C99.1281 23.331 99.0785 23.5512 99.0785 23.7973C99.0785 24.0391 99.126 24.2572 99.221 24.4515C99.3203 24.6458 99.4606 24.8012 99.6419 24.9178C99.8276 25.0301 100.05 25.0862 100.309 25.0862ZM102.985 25.5266V22.0681H103.477V23.5512H103.399C103.399 23.2101 103.444 22.923 103.535 22.6898C103.63 22.4524 103.773 22.2732 103.963 22.1523C104.153 22.0271 104.392 21.9645 104.682 21.9645H104.707C105.144 21.9645 105.465 22.1005 105.672 22.3725C105.884 22.6445 105.99 23.0374 105.99 23.5512V25.5266H105.368V23.4217C105.368 23.154 105.292 22.9403 105.141 22.7805C104.99 22.6164 104.783 22.5344 104.52 22.5344C104.248 22.5344 104.027 22.6186 103.859 22.787C103.691 22.9554 103.606 23.1799 103.606 23.4606V25.5266H102.985Z" fill="#3D4A5C"/>
<defs>
<linearGradient id="paint0_linear_909_29996" x1="4.32327" y1="18.6205" x2="26.8001" y2="13.7136" gradientUnits="userSpaceOnUse">
<stop stop-color="#4D4D4D"/>
<stop offset="0.05" stop-color="#7A7A7A"/>
<stop offset="0.12" stop-color="#B3B3B3"/>
<stop offset="0.18" stop-color="#DCDCDC"/>
<stop offset="0.22" stop-color="#F6F6F6"/>
<stop offset="0.25" stop-color="white"/>
<stop offset="0.29" stop-color="#DEDEDE"/>
<stop offset="0.4" stop-color="#909090"/>
<stop offset="0.47" stop-color="#606060"/>
<stop offset="0.51" stop-color="#4D4D4D"/>
<stop offset="0.75" stop-color="white"/>
<stop offset="0.79" stop-color="#DEDEDE"/>
<stop offset="0.89" stop-color="#909090"/>
<stop offset="0.96" stop-color="#606060"/>
<stop offset="1" stop-color="#4D4D4D"/>
</linearGradient>
<linearGradient id="paint1_linear_909_29996" x1="17.6753" y1="25.4178" x2="23.5296" y2="17.3458" gradientUnits="userSpaceOnUse">
<stop stop-color="white"/>
<stop offset="0.1" stop-color="#F3F3F3"/>
<stop offset="0.28" stop-color="#D4D4D4"/>
<stop offset="0.52" stop-color="#A3A3A3"/>
<stop offset="1" stop-color="#4D4D4D"/>
</linearGradient>
<linearGradient id="paint2_linear_909_29996" x1="30.4116" y1="8.06753" x2="19.8884" y2="14.3819" gradientUnits="userSpaceOnUse">
<stop stop-color="#4D4D4D"/>
<stop offset="0.51" stop-color="white"/>
<stop offset="0.57" stop-color="#F0F0F0"/>
<stop offset="0.69" stop-color="#C8C8C8"/>
<stop offset="0.86" stop-color="#888888"/>
<stop offset="1" stop-color="#4D4D4D"/>
</linearGradient>
</defs>
</svg>
