<svg width="16" height="20" viewBox="0 0 16 20" fill="none" xmlns="http://www.w3.org/2000/svg">
<path d="M8.7336 19.0438C7.15705 19.0688 5.5805 18.7685 4.12907 18.1179C2.82779 17.4923 1.75173 16.4662 1.07606 15.19C0.350346 13.8387 0 12.0619 0 9.88476C0 7.73264 0.350346 5.98092 1.07606 4.62959C1.75173 3.3283 2.82779 2.27727 4.12907 1.65165C5.55547 0.975988 7.13203 0.625643 8.7336 0.650667C9.83469 0.650667 10.9358 0.775789 12.0369 1.00101C13.0879 1.22623 14.1139 1.55155 15.1149 1.95195V5.83077C14.1389 5.33028 13.1379 4.87983 12.1119 4.50446C11.211 4.17914 10.2351 4.00397 9.28415 4.00397C8.38326 3.97894 7.48237 4.15412 6.65656 4.52949C5.90582 4.92988 5.33025 5.5555 5.02996 6.35629C4.65459 7.20713 4.47941 8.35826 4.47941 9.83471C4.47941 11.3112 4.67961 12.4873 5.02996 13.3131C5.35528 14.0889 5.93084 14.7395 6.65656 15.1399C7.4073 15.5153 8.25814 15.7155 9.08395 15.6905C9.53439 15.6905 9.98484 15.6655 10.4103 15.6154C10.8106 15.5654 11.186 15.4402 11.5364 15.2651V12.137H8.58346V8.80871H15.8656V17.1169C14.7645 17.7175 13.5884 18.1929 12.3872 18.5183C11.211 18.8686 9.95981 19.0438 8.7336 19.0438Z" fill="#07BFA5"/>
</svg>
