<svg width="166" height="29" viewBox="0 0 166 29" fill="none" xmlns="http://www.w3.org/2000/svg">
<path d="M13.625 28.5375C11.2625 28.575 8.90001 28.125 6.72501 27.15C4.77501 26.2125 3.16251 24.675 2.15001 22.7625C1.06251 20.7375 0.537506 18.075 0.537506 14.8125C0.537506 11.5875 1.06251 8.9625 2.15001 6.9375C3.16251 4.9875 4.77501 3.41251 6.72501 2.47501C8.86251 1.46251 11.225 0.937507 13.625 0.975007C15.275 0.975007 16.925 1.1625 18.575 1.5C20.15 1.8375 21.6875 2.32501 23.1875 2.92501V8.73751C21.725 7.98751 20.225 7.3125 18.6875 6.75C17.3375 6.2625 15.875 6 14.45 6C13.1 5.9625 11.75 6.22501 10.5125 6.78751C9.38751 7.38751 8.52501 8.32501 8.07501 9.52501C7.51251 10.8 7.25001 12.525 7.25001 14.7375C7.25001 16.95 7.55001 18.7125 8.07501 19.95C8.56251 21.1125 9.42501 22.0875 10.5125 22.6875C11.6375 23.25 12.9125 23.55 14.15 23.5125C14.825 23.5125 15.5 23.475 16.1375 23.4C16.7375 23.325 17.3 23.1375 17.825 22.875V18.1875H13.4V13.2H24.3125V25.65C22.6625 26.55 20.9 27.2625 19.1 27.75C17.3375 28.275 15.4625 28.5375 13.625 28.5375Z" fill="#07BFA5"/>
<path d="M29.825 27.975V0H35.825V10.65C35.825 9.4125 35.8625 9.825 35.8625 9C37.325 8.4 40.025 7.3875 41.525 7.3875C42.8375 7.35 44.1875 7.6125 45.425 8.1C46.55 8.55 47.45 9.375 48.0125 10.425C48.65 11.475 48.9875 12.9375 48.9875 14.8125V27.975H43.025V16.05C43.025 14.7375 42.6875 13.7625 42.0125 13.2C41.3375 12.6375 40.4 12.3 39.1625 12.3C38.525 12.3 37.85 12.375 37.25 12.5625C36.725 12.675 36.2375 12.9 35.7875 13.2L35.7125 27.975H29.825Z" fill="#07BFA5"/>
<path d="M63.4625 28.575C60.05 28.575 57.4625 27.675 55.7375 25.875C54.0125 24.075 53.15 21.4125 53.1875 17.8875C53.1875 14.1 54.05 11.4 55.8125 9.78749C57.575 8.13749 60.125 7.31249 63.5 7.27499C65.7875 7.27499 67.6625 7.64999 69.2 8.43749C70.7375 9.14999 71.9375 10.3875 72.6875 11.8875C73.475 13.4625 73.8875 15.45 73.8875 17.925C73.8875 21.45 72.9875 24.1125 71.1875 25.9125C69.3875 27.7125 66.8 28.575 63.4625 28.575ZM63.4625 23.85C65.225 23.9625 66.875 22.875 67.4 21.15C67.775 20.1 67.9625 18.975 67.925 17.85C67.9625 16.65 67.8125 15.4875 67.4 14.3625C67.1375 13.575 66.6125 12.9 65.9 12.4875C65.15 12.075 64.2875 11.85 63.4625 11.8875C62.6 11.85 61.7375 12.0375 60.9875 12.4875C60.3125 12.9375 59.7875 13.6125 59.525 14.4C59.1875 15.525 59.0375 16.6875 59.075 17.85C59.075 19.8375 59.4125 21.3375 60.125 22.35C60.8 23.3625 61.925 23.85 63.4625 23.85Z" fill="#07BFA5"/>
<path d="M77.975 27.975V10.0125C78.575 9.56249 79.25 9.18749 79.9625 8.92499C81.0125 8.47499 82.1375 8.09999 83.2625 7.79999C84.5 7.46249 85.775 7.27499 87.0125 7.27499C88.025 7.23749 89 7.34999 89.975 7.53749C90.575 7.64999 91.1375 7.91249 91.625 8.24999V12.5625C91.0625 12.45 90.5 12.375 89.9 12.3375C89.1875 12.3 88.475 12.2625 87.725 12.2625C86.975 12.2625 86.2625 12.225 85.5875 12.2625C85.025 12.2625 84.4625 12.3375 83.9 12.4125V27.9375H77.975V27.975Z" fill="#07BFA5"/>
<path d="M104.413 28.575C103.288 28.575 102.163 28.5 101.038 28.35C100.025 28.2375 99.0125 27.975 98.0375 27.6C97.2125 27.2625 96.5 26.7 95.9 26.025C95.3375 25.275 95.075 24.3375 95.1125 23.3625V0.524994H100.963V8.58749C101.938 8.13749 102.95 7.8375 103.963 7.575C104.6 7.4625 105.238 7.3875 105.875 7.3875C108.875 7.3875 111.163 8.28749 112.7 10.0875C114.238 11.8875 115.025 14.475 115.063 17.8875C115.1 19.6125 114.838 21.3375 114.275 22.95C113.825 24.225 113.038 25.35 112.025 26.25C111.05 27.075 109.888 27.675 108.65 28.05C107.263 28.3875 105.838 28.575 104.413 28.575ZM104.338 23.6625C105.313 23.7 106.288 23.475 107.15 22.9875C107.825 22.5 108.35 21.825 108.65 21.0375C108.988 20.1375 109.138 19.2 109.138 18.225C109.175 16.9875 108.988 15.75 108.538 14.625C108.2 13.8 107.638 13.125 106.888 12.675C106.138 12.2625 105.313 12.075 104.488 12.075C103.888 12.075 103.288 12.15 102.725 12.2625C102.125 12.375 101.525 12.6 101 12.9V21.7875C100.963 22.2 101.15 22.6125 101.45 22.9125C101.788 23.2125 102.2 23.4 102.65 23.5125C103.175 23.625 103.738 23.6625 104.338 23.6625Z" fill="#1B3F73"/>
<path d="M127.025 28.575C125.863 28.575 124.7 28.4625 123.538 28.2C122.525 28.0125 121.588 27.6375 120.688 27.1125C119.9 26.5875 119.263 25.875 118.813 25.0125C118.325 23.9625 118.1 22.8375 118.138 21.675C118.1 20.55 118.363 19.425 118.888 18.4125C119.45 17.475 120.275 16.725 121.288 16.275C122.563 15.75 123.95 15.4875 125.338 15.525C126.238 15.525 127.1 15.6 128 15.7875C128.788 15.9375 129.538 16.2 130.288 16.5375C131 16.8375 130.925 16.875 130.925 16.875V19.875C130.925 19.875 131 19.8375 130.25 19.65C129.463 19.4625 128.638 19.3875 127.85 19.3875C126.538 19.3875 125.563 19.575 124.963 19.9875C124.363 20.3625 124.025 21.075 124.063 21.7875C124.063 22.275 124.213 22.7625 124.513 23.1375C124.813 23.55 125.225 23.85 125.675 24.0375C126.162 24.2625 126.688 24.375 127.25 24.375C128.225 24.4125 129.163 24.3375 130.1 24.1125C130.625 24 130.963 23.5125 130.925 22.9875V15.6375C130.925 14.4375 130.513 13.5375 129.725 13.0125C128.938 12.4875 127.813 12.1875 126.388 12.1875C125.188 12.1875 123.95 12.4125 122.825 12.825C121.775 13.1625 120.8 13.65 119.938 14.2875V9.075C120.95 8.55 122.038 8.1375 123.125 7.875C124.738 7.5 126.388 7.3125 128.038 7.3125C128.75 7.3125 129.463 7.3875 130.175 7.4625C130.963 7.575 131.75 7.7625 132.5 8.0625C133.288 8.325 134 8.7375 134.638 9.2625C135.313 9.7875 135.875 10.5 136.25 11.2875C136.663 12.2625 136.888 13.275 136.85 14.325L136.813 23.775C136.85 24.825 136.438 25.8375 135.65 26.55C134.675 27.3375 133.513 27.8625 132.275 28.05C130.55 28.425 128.788 28.575 127.025 28.575Z" fill="#1B3F73"/>
<path d="M142.138 27.975V10.0125C142.738 9.56249 143.413 9.18749 144.163 8.92499C145.213 8.47499 146.338 8.09999 147.463 7.79999C148.7 7.46249 149.975 7.27499 151.213 7.27499C152.225 7.23749 153.2 7.34999 154.175 7.53749C154.775 7.64999 155.338 7.91249 155.825 8.24999V12.5625C155.263 12.45 154.663 12.375 154.1 12.3375C153.388 12.3 152.675 12.2625 151.925 12.2625C151.175 12.2625 150.463 12.225 149.788 12.2625C149.225 12.2625 148.663 12.3375 148.1 12.4125V27.9375H142.138V27.975Z" fill="#1B3F73"/>
<path d="M159.388 27.975V8.21249H165.35L165.388 27.975H159.388ZM159.275 5.21249V0.674988H165.462V5.21249H159.275Z" fill="#1B3F73"/>
</svg>
